<?xml version="1.0" encoding="utf-8"?>
<!-- Generator: Adobe Illustrator 16.0.0, SVG Export Plug-In . SVG Version: 6.00 Build 0)  -->
<!DOCTYPE svg PUBLIC "-//W3C//DTD SVG 1.1//EN" "http://www.w3.org/Graphics/SVG/1.1/DTD/svg11.dtd">
<svg version="1.1" id="Layer_1" xmlns="http://www.w3.org/2000/svg" xmlns:xlink="http://www.w3.org/1999/xlink" x="0px" y="0px"
	 width="2160px" height="2160px" viewBox="0 0 2160 2160" enable-background="new 0 0 2160 2160" xml:space="preserve">
<g id="Profile_Icons" display="none">
	<g id="Send" display="inline">
		<circle fill="#65ADE0" cx="1080" cy="1098.151" r="615.327"/>
		<g>
			<g>
				<path fill-rule="evenodd" clip-rule="evenodd" fill="#FFFFFF" d="M961.064,1379.396c0.697-17.878-10.249-37.175-27.172-46.013
					c-23.684-12.367-49.096-20.789-73.613-31.271c-8.847-3.787-17.761-7.326-27.376-8.887c-16.662-2.703-27.359,7.662-24.992,24.297
					c2.327,16.344,10.139,30.744,16.168,45.735c18.676,46.434,38.132,92.557,54.916,139.734c0.89,2.498,0.526,6.336,3.548,6.831
					c2.962,0.489,4.286-3.047,5.758-5.254c20.946-31.331,41.903-62.657,62.66-94.116
					C957.123,1401.11,960.28,1390.587,961.064,1379.396z"/>
				<path fill-rule="evenodd" clip-rule="evenodd" fill="#FFFFFF" d="M1432.05,725.783
					c-19.056,69.812-38.127,139.616-57.166,209.431c-42.494,155.836-84.972,311.67-127.462,467.505
					c-2.835,10.387-2.886,10.472-12.62,6.437c-97.409-40.382-195.263-79.668-293.306-118.482c-4.084-1.621-8.042-3.602-11.929-5.667
					c-24.418-12.976-30.674-40.21-13.874-62.218c13.726-17.98,30.192-33.57,45.572-50.09
					c67.011-71.961,134.326-143.635,201.439-215.504c35.341-37.844,70.507-75.853,105.702-113.832
					c3.146-3.396,5.953-7.116,9.833-11.791c-4.905,0.011-7.127,2.427-9.459,4.259c-55.94,43.816-111.907,87.6-167.741,131.55
					c-90.9,71.554-181.422,143.582-272.701,214.648c-36.166,28.157-77.423,33.127-120.287,17.917
					c-32.152-11.411-63.591-24.841-95.293-37.501c-11.181-4.464-21.37-10.354-27.019-21.771c0-4.41,0-8.816,0-13.227
					c5.678-11.875,16.046-18.582,27.132-24.396c159.7-83.776,319.422-167.513,479.131-251.265
					c88.022-46.162,176.015-92.39,264.091-138.448c14.129-7.391,27.798-15.834,42.928-21.139
					c16.137-5.657,25.99-1.836,33.027,12.096C1432.05,711.458,1432.05,718.621,1432.05,725.783z"/>
				<path fill-rule="evenodd" clip-rule="evenodd" fill="#FFFFFF" d="M961.053,1379.39c-0.773,11.197-3.93,21.721-10.091,31.063
					c-20.757,31.459-41.714,62.785-62.66,94.116c-1.472,2.207-2.796,5.743-5.758,5.254c-3.022-0.495-2.658-4.333-3.548-6.831
					c-16.784-47.178-36.24-93.301-54.916-139.734c-6.03-14.991-13.841-29.392-16.168-45.735c-2.368-16.635,8.33-27,24.992-24.297
					c9.615,1.561,18.529,5.1,27.376,8.887c24.517,10.482,49.93,18.904,73.613,31.271
					C950.816,1342.222,961.761,1361.519,961.053,1379.39z"/>
			</g>
		</g>
	</g>
	<g id="Message" display="inline">
		<g>
			<path fill-rule="evenodd" clip-rule="evenodd" fill="#65ADE0" d="M1080.709,482.095
				c336.099-1.721,616.421,271.079,615.516,617.189c-0.894,341.048-276.644,620.107-628.146,614.863
				c-167.229-2.495-311.995-65.495-428.916-185.559c-126.747-130.152-183.828-288.254-174.386-469.453
				C480.563,756.211,736.171,480.157,1080.709,482.095z"/>
			<path fill-rule="evenodd" clip-rule="evenodd" fill="#FFFFFF" d="M755.902,1437.821c8.578-45.686,16.278-89.043,25.125-132.166
				c2.242-10.93-1.182-16.92-8.929-23.816c-47.613-42.385-80.703-93.783-93.194-156.957c-15.18-76.766,3.245-146.269,49.594-208.102
				c58.883-78.558,140.225-122.948,233.999-144.757c114.779-26.694,226.982-16.923,333.893,34.212
				c63.936,30.579,117.68,74.049,154.129,136.212c56.283,95.99,49.088,205.993-19.039,294.536
				c-54.734,71.139-128.525,112.99-213.307,137.355c-50.471,14.506-102.206,20.307-154.663,18.52
				c-35.683-1.215-70.985-6.074-105.658-14.688c-7.292-1.813-13.645-1.613-20.737,0.748
				c-56.271,18.738-112.649,37.151-169.007,55.624C764.814,1435.623,761.406,1436.354,755.902,1437.821z"/>
		</g>
	</g>
	<g id="HEart" display="inline">
		<circle fill="#65ADE0" cx="1080" cy="1098.151" r="615.327"/>
		<g>
			<g>
				<path fill-rule="evenodd" clip-rule="evenodd" fill="#FFFFFF" d="M1079.412,1589.551c-0.903,0-1.812,0-2.714,0
					c-0.727-0.762-1.439-1.542-2.187-2.285c-66.661-66.683-133.333-133.359-199.991-200.05
					c-56.539-56.554-113.145-113.043-169.56-169.721c-28.404-28.539-49.171-61.997-62.562-99.985
					c-6.613-18.755-11.103-38.014-13.263-57.796c-0.608-5.536-1.098-11.08-1.639-16.621c0-9.802,0-19.605,0-29.405
					c0.103-0.667,0.264-1.329,0.3-1.998c0.654-12.36,2.239-24.61,4.756-36.716c11.791-56.818,38.743-105.248,81.469-144.503
					c50.51-46.405,110.435-69.907,178.954-71.425c16.451-0.364,32.816,1.023,49.045,3.848
					c50.658,8.814,95.157,30.407,133.656,64.442c2.312,2.047,2.316,2.083,4.654-0.092c9.845-9.153,20.322-17.522,31.449-25.062
					c37.415-25.358,78.601-40.428,123.56-45.151c4.412-0.464,8.838-0.797,13.258-1.19c9.801,0,19.602,0,29.404,0
					c0.516,0.098,1.025,0.26,1.547,0.285c16.076,0.808,31.926,3.25,47.527,7.114c50.463,12.491,93.951,37.298,129.881,74.842
					c47.078,49.189,71.926,108.092,75.264,176.04c0.83,16.893-0.195,33.75-2.707,50.489c-4.467,29.776-13.637,58.032-27.541,84.745
					c-13.988,26.869-32.529,50.238-53.93,71.584c-82.84,82.629-165.506,165.427-248.232,248.166
					C1159.673,1509.249,1119.545,1549.403,1079.412,1589.551z"/>
			</g>
		</g>
	</g>
</g>
<g id="Social_Icons" display="none">
	<g id="Fb" display="inline">
		<path fill="#262626" d="M1088.995,385.276c197.243,0,375.521,79.833,504.779,209.104
			c129.258,129.265,209.104,307.531,209.104,504.772c0,197.242-79.846,375.516-209.104,504.772
			c-129.259,129.265-307.536,209.104-504.779,209.104s-375.516-79.84-504.772-209.104
			c-129.256-129.257-209.104-307.53-209.104-504.772c0-197.241,79.847-375.507,209.104-504.772
			C713.479,465.109,891.752,385.276,1088.995,385.276L1088.995,385.276z M1554.643,633.906
			c-119.374-118.979-283.822-192.905-465.647-192.905c-181.82,0-346.266,73.926-465.246,192.905
			C504.762,752.886,430.85,917.326,430.85,1099.152c0,181.834,73.913,346.266,192.899,465.64
			c118.98,118.987,283.426,192.508,465.246,192.508c181.825,0,346.273-73.521,465.647-192.508
			c118.979-119.374,192.506-283.806,192.506-465.64C1747.148,917.326,1673.621,752.886,1554.643,633.906L1554.643,633.906z"/>
		<path fill-rule="evenodd" clip-rule="evenodd" fill="#262626" d="M1143.543,953.29v-58.498c0-28.063,18.576-34.782,32.027-34.782
			c13.039,0,81.82,0,81.82,0V735.099h-112.659c-125.3,0-153.366,92.49-153.366,152.579v65.613h-72.737v88.147v57.715h73.519
			c0,165.622,0,364.458,0,364.458h145.87c0,0,0-201.602,0-364.458h107.907l4.75-57.314l8.695-88.548H1143.543z"/>
	</g>
	<g id="G_x2B_" display="inline">
		<path fill="#262626" d="M1088.99,385.276c197.259,0,375.524,79.833,504.778,209.104
			c129.244,129.265,209.113,307.531,209.113,504.772c0,197.242-79.869,375.516-209.113,504.772
			c-129.254,129.265-307.52,209.104-504.778,209.104c-197.257,0-375.522-79.84-504.778-209.104
			c-129.243-129.257-209.097-307.53-209.097-504.772c0-197.241,79.854-375.507,209.097-504.772
			C713.468,465.109,891.733,385.276,1088.99,385.276L1088.99,385.276z M1554.251,633.906
			c-118.992-118.979-283.435-192.905-465.261-192.905c-181.825,0-346.266,73.926-465.26,192.905
			c-119.346,118.979-192.878,283.419-192.878,465.246c0,181.834,73.532,346.266,192.878,465.64
			c118.994,118.987,283.435,192.508,465.26,192.508c181.826,0,346.269-73.521,465.261-192.508
			c119.359-119.374,192.864-283.806,192.864-465.64C1747.115,917.326,1673.61,752.886,1554.251,633.906L1554.251,633.906z"/>
		<path fill-rule="evenodd" clip-rule="evenodd" fill="#262626" d="M1161.722,1049.351c-52.568,0.786-105.141,0.786-157.709,0.786
			c-15.01,0-30.426-0.786-45.082,0c-3.14,0-7.882,3.556-7.882,5.534c-0.395,30.447-0.395,60.876-0.395,92.497
			c43.081,0,85.373,0,128.453,0c-1.166,6.322-2.351,11.059-4.334,15.408c-19.388,58.506-79.869,87.366-145.083,76.702
			c-80.643-13.444-130.424-87.767-115.812-168.396c1.592-11.468,5.533-22.532,9.489-32.819
			c26.863-58.496,92.878-94.073,158.118-79.444c23.315,5.137,43.489,15.816,60.455,31.225c23.724-23.717,46.262-46.25,70.758-70.752
			c-1.576-1.191-4.335-3.167-5.911-5.139c-56.921-47.833-122.161-65.629-195.286-53.374
			c-105.55,17.001-181.418,100.016-197.624,196.852c-7.505,41.115-4.351,84.991,11.867,127.679
			c40.322,102.388,143.462,165.229,254.149,152.98c54.147-5.936,102.396-25.3,139.55-65.229
			c55.694-59.283,70.323-130.439,61.257-209.098C1179.108,1051.721,1173.984,1049.351,1161.722,1049.351L1161.722,1049.351z
			 M1400.864,1056.868c-4.731,0-10.251,0-15.798,0c0-1.197,0-2.782,0-3.176c0-4.342,0-7.899,0-11.064
			c0-20.161,0.396-40.323,0-60.878c0-3.154-3.954-9.088-5.546-9.088c-18.162-0.795-36.761-0.795-56.104-0.795
			c0,24.511,0,47.444,0,70.761c0,4.35,0,9.093,0,13.43c-28.876,0-55.738,0-85.007,0c0,6.73,0,11.087,0,15.433
			c0.802,15.021,1.209,30.429,2.38,45.453c14.627,0.793,29.256,1.576,44.643,1.576c12.291,0.394,24.904,0,38.35,0
			c0,29.25,0,56.138,0,83.015c20.979-0.403,40.322,0,61.285,0c0-27.686,0-54.548,0-83.015c28.453,0,55.329,0,82.995,0
			c0-16.204,0-31.229,0-47.029c0-5.148,0-9.886,0-14.622C1445.942,1056.868,1423.417,1056.868,1400.864,1056.868L1400.864,1056.868z
			"/>
	</g>
	<g id="Twitter" display="inline">
		<path fill="#262626" d="M1089.006,385.08c197.243,0,375.506,80.235,504.777,209.096
			c129.259,129.265,209.101,307.926,209.101,505.18c0,196.839-79.842,375.516-209.101,504.761
			c-129.271,128.868-307.534,209.109-504.777,209.109c-197.257,0-375.523-80.241-504.765-209.109
			c-129.286-129.245-209.126-307.922-209.126-504.761c0-197.254,79.84-375.915,209.126-505.18
			C713.482,465.314,891.749,385.08,1089.006,385.08L1089.006,385.08z M1554.253,633.71
			c-118.993-118.993-283.405-192.505-465.247-192.505c-181.855,0-346.268,73.513-465.261,192.505
			c-119.358,118.979-192.892,283.816-192.892,465.646c0,181.428,73.533,346.267,192.892,465.249
			c118.993,118.97,283.406,192.89,465.261,192.89c181.842,0,346.254-73.92,465.247-192.89
			c119.373-118.982,192.893-283.821,192.893-465.249C1747.146,917.526,1673.626,752.689,1554.253,633.71L1554.253,633.71z"/>
		<path fill-rule="evenodd" clip-rule="evenodd" fill="#262626" d="M1453.447,876.798c-26.496,11.476-55.328,19.381-85.767,23.323
			c31.212-18.569,54.921-47.037,66.017-81.817c-28.863,16.994-61.271,29.247-95.259,35.961
			c-26.918-28.838-66.014-46.633-109.504-46.633c-82.219,0-149.432,66.014-149.432,147.038c0,11.863,1.999,22.934,4.364,33.613
			c-124.512-5.933-234.807-64.438-308.339-153.773c-12.643,22.139-20.542,47.043-20.542,73.919
			c0,51.388,26.877,96.444,66.396,122.542c-24.497-0.395-47.432-7.124-67.579-18.191c0,0.797,0,1.193,0,1.98
			c0,18.971,3.562,36.37,10.263,52.965c18.206,46.261,59.709,81.035,109.914,90.92c-13.065,3.561-25.708,5.523-39.534,5.523
			c-9.491,0-18.976-1.18-28.086-3.153c19.386,58.505,74.321,101.186,139.563,102.775c-51.402,39.527-115.432,62.848-185.404,62.848
			c-12.263,0-23.708-0.8-35.957-1.977c66.396,41.511,145.054,66.015,229.257,66.015c233.608,0,377.887-161.682,415.422-329.673
			c6.742-30.032,9.881-59.682,9.881-88.93c0-6.331,0-13.039,0-18.978C1407.988,932.144,1433.697,906.047,1453.447,876.798
			L1453.447,876.798z"/>
	</g>
	<g id="IG" display="inline">
		<path fill="#262626" d="M1088.998,385.276c197.244,0,375.908,79.833,504.772,209.104
			c129.265,129.265,209.111,307.531,209.111,504.772c0,197.242-79.847,375.516-209.111,504.772
			c-128.864,129.265-307.528,209.104-504.772,209.104c-196.849,0-375.507-79.84-504.771-209.104
			c-129.264-129.257-209.111-307.53-209.111-504.772c0-197.241,79.847-375.507,209.111-504.772
			C713.491,465.109,892.149,385.276,1088.998,385.276L1088.998,385.276z M1554.646,633.906
			c-119.382-118.979-283.814-192.905-465.648-192.905c-181.432,0-346.267,73.926-465.238,192.905
			c-118.994,118.979-192.907,283.419-192.907,465.246c0,181.834,73.913,346.266,192.907,465.64
			c118.971,118.987,283.806,192.508,465.238,192.508c181.834,0,346.267-73.521,465.648-192.508
			c118.979-119.374,192.496-283.806,192.496-465.64C1747.143,917.326,1673.626,752.886,1554.646,633.906L1554.646,633.906z"/>
		<path fill-rule="evenodd" clip-rule="evenodd" fill="#262626" d="M906.377,1099.152c0-100.795,81.824-183.017,182.621-183.017
			c101.197,0,183.018,82.222,183.018,183.017c0,101.186-81.82,183.018-183.018,183.018
			C988.201,1282.17,906.377,1200.338,906.377,1099.152L906.377,1099.152z M1277.95,741.426H900.456
			c-92.892,0-169.185,75.883-169.185,169.184v377.493c0,92.879,76.293,169.17,169.185,169.17h377.494
			c93.286,0,169.177-76.291,169.177-169.17V910.61C1447.127,817.31,1371.236,741.426,1277.95,741.426L1277.95,741.426z
			 M900.456,783.725h377.494c69.97,0,126.884,56.908,126.884,126.885v377.493c0,69.958-56.914,126.87-126.884,126.87H900.456
			c-69.978,0-126.892-56.912-126.892-126.87V910.61C773.564,840.633,830.478,783.725,900.456,783.725L900.456,783.725z
			 M1315.498,837.083c-20.556,0-37.153,16.602-37.153,37.148c0,20.56,16.598,37.16,37.153,37.16c20.553,0,37.161-16.6,37.161-37.16
			C1352.659,853.685,1336.051,837.083,1315.498,837.083L1315.498,837.083z M1319.84,1099.152
			c0-127.286-103.161-230.839-230.842-230.839c-127.286,0-230.842,103.554-230.842,230.839
			c0,127.682,103.556,230.851,230.842,230.851C1216.679,1330.003,1319.84,1226.834,1319.84,1099.152L1319.84,1099.152z"/>
	</g>
</g>
<g id="Home_Icons">
	<g id="Create_Birthday">
		<path fill="#FBD1DB" d="M1855.218,1080.153c0,423.325-343.172,766.495-766.492,766.495c-423.328,0-766.5-343.17-766.5-766.495
			c0-423.322,343.172-766.494,766.5-766.494C1512.046,313.659,1855.218,656.831,1855.218,1080.153z"/>
		<g>
			<path fill-rule="evenodd" clip-rule="evenodd" fill="#283138" d="M705.08,1016.457h314.28V799.973
				c0-18.777,15.238-33.998,30.13-33.998h14.896c0-22.366,3.883-52.187,18.804-63.512c3.587-7.161,11.056-11.037,22.354-11.037
				c7.469,0,14.931,7.446,14.931,14.907c0,7.455-7.462,14.917-14.931,14.917c-7.434,3.87-11.299,22.358-11.299,44.725h11.299
				c14.931,0,29.857,11.327,33.727,26.235v224.247h333.082l0,0l0,0v190.58v-63.519c0,7.75-3.885,15.21-11.317,18.774
				c-7.478,0-14.923,0-22.372-3.564l-29.821-30.135c0-3.586-7.437-7.462-11.337-7.462c-3.875,0-7.469,3.876-11.346,7.462
				l-25.912,26.26c-3.885,3.875-11.361,3.875-15.239,3.875c-3.565,0-7.438,0-11.025-3.875l-26.229-26.26
				c-3.875-3.586-7.459-7.462-14.894-7.462c-3.882,0-7.785,3.876-11.37,7.462l-26.231,26.26c-3.566,3.875-7.442,3.875-14.919,3.875
				c-3.885,0-7.443,0-11.318-3.875l-26.229-26.26c-3.587-3.586-7.468-7.462-14.93-7.462c-3.558,0-7.433,3.876-11.334,7.462
				l-25.941,26.26c-3.882,3.875-7.758,3.875-11.315,3.875c-7.486,0-11.046,0-14.921-3.875l-26.239-26.26
				c-3.865-3.586-7.452-7.462-11.334-7.462c-7.453,0-11.021,3.876-14.886,7.462l-26.267,26.26
				c-3.593,3.875-7.468,3.875-11.025,3.875c-7.752,0-11.363,0-15.238-3.875l-25.922-26.26c-3.867-3.586-7.751-7.462-11.335-7.462
				c-3.876,0-11.338,3.876-14.896,7.462l-26.256,26.26c-3.884,3.875-7.478,3.875-11.334,3.875c-3.568,0-11.029,0-11.029-3.875
				l-30.131-26.26c-3.567-3.586-7.442-7.462-11.026-7.462c-3.876,0-11.337,3.876-11.337,7.462l-30.104,26.26
				c-3.595,3.875-7.468,3.875-11.055,3.875c-3.875,0-7.758,0-11.309-3.875l-29.852-26.26c-3.872-3.586-7.748-7.462-11.307-7.462
				c-3.586,0-7.461,3.876-11.055,7.462l-30.096,26.26c-3.885,7.439-15.22,7.439-22.363,3.875c0,0-3.876,0-3.876-3.875V1016.457
				L705.08,1016.457L705.08,1016.457z M1472.353,1207.037v108.546H705.08v-93.342h767.272
				C1472.353,1218.366,1472.353,1214.783,1472.353,1207.037L1472.353,1207.037z M1472.353,1353.153v112.11v3.615l0,0H705.08l0,0
				v-3.615v-112.11H1472.353z"/>
		</g>
	</g>
	<g id="Give_Gift">
		<path fill="#5FC5BF" d="M1855.217,1080.152c0,423.326-343.17,766.497-766.492,766.497c-423.326,0-766.498-343.171-766.498-766.497
			c0-423.321,343.172-766.493,766.498-766.493C1512.047,313.659,1855.217,656.831,1855.217,1080.152z"/>
		<g>
			<path fill-rule="evenodd" clip-rule="evenodd" fill="#283138" d="M1433.594,913.479h-192.631
				c4.852-5.667,14.947-15.351,20.191-20.201c15.324-30.702,20.176-61.373,5.264-81.543c-10.508-25.031-35.545-34.742-60.99-34.742
				c-20.209,0-35.518,4.821-55.727,9.711c-5.246,4.824-15.344,9.648-20.201,15.315c20.201-46.013,55.719-71.044,55.719-71.044
				c14.963-4.858,20.209-25.029,9.717-40.41c-9.717-10.498-25.025-15.316-39.98-4.825c0,0-66.23,40.377-86.439,116.279
				c0,15.353-4.824,29.886-4.824,40.382c-15.35-20.172-35.947-40.382-55.719-55.697c-20.605-4.89-35.959-9.711-55.746-9.711
				c-25.447,0-50.859,9.711-61.369,34.742c-14.92,20.17-10.098,50.842,5.652,81.543c4.857,4.85,14.531,14.534,19.77,20.201H739.027
				c-15.309,0-25.457,15.317-25.457,29.855v106.636c0,15.315,10.148,29.853,25.457,29.853h20.209v162.369h162.287v-146.986h65.844
				v146.986h425.594v-162.369h20.633c20.176,0,30.289-14.538,30.289-29.853V943.334
				C1463.883,928.795,1453.77,913.479,1433.594,913.479L1433.594,913.479z M759.236,1318.061v136.489
				c0,15.382,15.316,25.878,30.701,25.878h131.586v-162.367H759.236z M987.367,1480.428h400.568
				c14.967,0,25.025-10.496,25.025-25.878v-136.489H987.367V1480.428z M1179.98,837.547c10.105-5.642,20.201-5.642,25.447-5.642
				c5.236,0,10.078,0,10.078,5.642c4.885,4.854,4.885,9.708-4.842,25.029c-10.482,20.205-50.848,35.552-86.422,40.412
				C1139.199,877.962,1154.955,852.08,1179.98,837.547L1179.98,837.547z M941.734,837.547c0-5.642,4.859-5.642,10.492-5.642
				c4.869,0,14.543,0,25.037,5.642c20.209,14.533,40.418,40.415,55.725,65.441c-35.516-4.86-75.893-20.207-86.395-40.412
				C936.5,847.255,936.5,842.4,941.734,837.547L941.734,837.547z"/>
		</g>
	</g>
	<g id="Create_Bday_Buzz" display="none">
		<path display="inline" fill="#D96867" d="M1855.216,1080.154c0,423.322-343.172,766.496-766.49,766.496
			c-423.326,0-766.498-343.174-766.498-766.496c0-423.324,343.172-766.496,766.498-766.496
			C1512.044,313.658,1855.216,656.831,1855.216,1080.154z"/>
		<g display="inline">
			<path fill-rule="evenodd" clip-rule="evenodd" fill="#283138" d="M1403.411,624.642c-75.92,0-143.32,49.213-161.139,121.24
				c-22.477-72.027-89.521-121.24-165.814-121.24c-93.756,0-170.083,76.321-170.083,174.737c0,8.511,0,22.099,0,30.645
				c13.532,13.544,27.136,31.366,36.011,49.177c8.928-22.105,22.477-39.911,40.316-53.47c0-17.841,8.892-31.365,13.162-49.207
				c4.656-8.546,8.945-22.1,18.207-30.642c0-4.981,4.252-13.553,8.892-18.566c17.837-26.353,49.208,5.013,31.37,27.108
				c0,4.292-4.639,9.271-9.277,13.554c-8.877,8.546-13.165,17.811-17.805,26.389c-4.288,0-4.288,5.013-4.288,5.013
				c31.37-18.563,44.569-18.563,80.577-18.563c102.705,0,183.281,80.574,183.281,178.99c0,40.662-40.295,196.8-75.937,196.8h26.73
				c4.657,17.846,0,31.365,0,49.213c4.657,35.65,26.763,39.938,26.763,62.727c-17.852,8.58-31.051,22.131-31.051,35.684
				c4.288,22.1,17.838,40.633,17.838,62.732c-4.639,8.58,8.926,4.281,8.926-4.979c4.287-17.121,0-31.393-8.926-49.211
				c0-4.285-4.639-8.543,0-17.807c4.253-22.098,35.656-26.42,26.73-39.943c-17.805-17.842-26.73-35.658-26.73-57.783
				c0-13.529,4.253-27.082,0-40.633l17.855-4.258c-8.93-4.283-13.603-13.58-8.93-17.84
				c71.635-17.848,317.693-121.21,317.693-335.128C1577.784,700.963,1501.843,624.642,1403.411,624.642L1403.411,624.642z
				 M1103.54,790.083c-76.289,0-143.315,49.208-161.154,120.509c-22.479-71.302-89.472-120.509-165.426-120.509
				c-94.129,0-170.453,76.286-170.453,169.723c0,218.901,246.407,321.604,318.039,340.136c4.326,12.83,0,22.1-13.529,22.1h26.729
				c4.641,13.553,0,31.395,0,49.201c4.641,35.664,27.117,39.949,27.117,62.77c-18.187,8.539-31.352,17.813-31.352,35.621
				c4.234,22.129,17.803,39.943,17.803,62.045c-4.638,9.299,8.911,0,8.911-4.262c4.638-17.84,0-30.676-8.911-49.207
				c0-4.252-4.638-13.518,0-17.842c4.289-22.096,35.658-26.355,26.731-39.912c-17.82-17.811-26.731-35.658-26.731-62.76
				c0-12.834,4.289-27.105,0-39.949h17.801c-8.89-4.975-13.512-13.518-8.89-17.805c71.666-18.531,317.671-121.234,317.671-340.136
				C1277.896,866.369,1201.956,790.083,1103.54,790.083L1103.54,790.083z M754.518,915.571c0,4.289-4.639,8.581-8.927,12.833
				c-9.297,9.274-13.551,18.567-18.174,31.401c-13.217,17.807-22.494,40.662-26.748,62.762c-4.287,22.785-8.912,44.889,0,67.018
				c4.254,22.096,13.531,44.922,31.371,62.762c-17.84-13.58-35.658-35.688-44.92-58.473c-8.928-22.096-13.164-48.522-8.928-75.596
				c0-27.109,8.928-49.212,18.189-76.281c4.287-8.581,8.541-22.139,17.818-31.406c4.29-8.541,4.29-12.832,8.947-17.812
				C740.948,861.39,772.321,897.76,754.518,915.571L754.518,915.571z M794.778,1013.297c0,4.982-4.639,4.982-4.639,4.982
				c-4.641,4.289-4.641,8.542-8.892,13.554c-4.288,8.546-8.927,17.807-8.927,26.358c-4.625,9.266-4.625,17.847,0,27.103
				c0,8.581,4.639,17.847,13.178,26.388c-8.539-4.283-17.803-12.834-17.803-22.096c-4.305-13.548-8.926-22.129-4.305-31.395
				c0-12.838,0-22.1,4.305-31.37c4.625-4.253,4.625-13.523,9.264-17.842c0,0,0-4.249,4.288-4.249
				C790.14,991.17,799.087,1004.73,794.778,1013.297L794.778,1013.297z M772.321,969.067c0,4.297-4.625,8.545-4.625,8.545
				c-4.305,9.266-8.926,13.558-13.179,18.536c-8.927,12.831-13.569,26.419-18.224,44.23c-4.254,13.549-4.254,27.078,0,44.915
				c4.654,13.554,13.585,26.388,22.477,39.946c-13.18-13.559-22.477-26.393-26.73-39.946c-8.893-13.515-8.893-31.366-8.893-49.203
				c0-17.812,4.27-31.361,13.146-49.213c0-9.266,4.654-13.515,9.297-22.095c4.288-4.978,4.288-9.267,8.927-9.267
				C763.392,933.418,785.499,959.806,772.321,969.067L772.321,969.067z"/>
		</g>
	</g>
	<g id="Get_Gift" display="none">
		<path display="inline" fill="#85C779" d="M1855.217,1080.159c0,423.318-343.173,766.489-766.492,766.489
			c-423.328,0-766.498-343.171-766.498-766.489c0-423.328,343.17-766.5,766.498-766.5
			C1512.044,313.66,1855.217,656.831,1855.217,1080.159z"/>
		<g display="inline">
			<path fill-rule="evenodd" clip-rule="evenodd" fill="#283138" d="M910.594,1511.572h6.381h499.229
				c18.627,0,30.932-12.776,30.932-30.458v-161.165h-530.16h-6.381H731.74v161.165c0,17.682,12.303,30.458,30.932,30.458H910.594
				L910.594,1511.572z M1472.193,908.168h-135.621c55.52-18.638,92.389-68.76,92.389-123.802c0-36.326-12.758-67.81-36.869-92.352
				c-25.062-30.501-61.914-43.268-98.749-43.268c-12.778,0-18.665,0-30.967,0c-61.896,12.767-111.544,61.949-141.998,135.62v5.905
				l-30.459,86.492l-30.982-86.492l-6.38-5.905c-30.93-73.67-80.068-122.853-141.963-135.62c-5.904,0-18.682,0-30.931,0
				c-36.87,0-73.724,12.767-98.259,43.268c-25.111,24.542-37.361,56.026-37.361,92.352c0,55.042,37.361,105.164,98.75,123.802
				H700.826c-12.354,0-30.508,11.818-30.508,30.456v104.216c0,18.638,18.154,31.405,30.508,31.405h30.914v135.619
				c400.922,0,98.752,0,715.395,0v-135.619h25.059c18.154,0,30.458-12.767,30.458-31.405V938.625
				C1502.651,919.987,1490.348,908.168,1472.193,908.168L1472.193,908.168z M1274.678,697.919c5.887,0,12.283,0,18.665,0
				c55.042,0,85.989,43.225,85.989,86.448c0,49.13-49.154,86.492-111.053,86.492h-123.334
				C1157.721,821.721,1188.178,716.557,1274.678,697.919L1274.678,697.919z M904.689,870.858
				c-61.896,0-111.051-37.362-111.051-86.492c0-43.223,36.854-86.448,86.024-86.448c6.397,0,18.629,0,25.026,0
				c86.481,18.638,110.559,123.802,123.334,172.939H904.689z"/>
		</g>
	</g>
	<g id="Calendar" display="none">
		<path display="inline" fill="#BEDA7E" d="M1855.218,1080.157c0,423.319-343.172,766.491-766.49,766.491
			c-423.329,0-766.501-343.172-766.501-766.491c0-423.327,343.172-766.498,766.501-766.498
			C1512.046,313.659,1855.218,656.831,1855.218,1080.157z"/>
		<g display="inline">
			<path fill-rule="evenodd" clip-rule="evenodd" fill="#283138" d="M1155.86,1084.534c-4.306,0-4.306-4.658-8.965-4.658v-17.898
				c13.612-8.945,22.583-22.197,36.151-31.15c8.991-8.944,13.268-27.213,8.991-35.807c-4.649-18.269-17.919-26.854-36.178-26.854
				c-8.965,0-13.244,4.289-22.195,13.251c-4.692,4.296-8.965,8.945-13.612,13.603h-58.356c0-4.658,0-4.658-4.647-4.658
				c-4.342-4.649-13.269-4.649-17.915-4.649c-13.271,0-26.854,9.307-31.511,22.548c-4.299,17.908,0,31.519,13.583,40.465
				c0,4.306,4.656,4.306,8.954,8.963v35.808c-4.298,0-4.298,0-4.298,4.648c-9.313,8.944-13.583,22.555-4.656,35.824
				c4.656,13.585,17.928,22.195,31.501,22.195c8.989,0,17.928-4.313,26.882-13.267c4.654-8.929,8.961-13.585,13.621-22.198
				c4.261,4.279,4.261,8.613,8.918,13.27c13.267,13.585,26.845,26.844,40.488,44.735c4.279,4.686,13.244,9.343,22.55,9.343
				c13.223,0,26.872-9.343,31.148-22.575c9.306-13.62,4.658-27.224-4.276-36.159
				C1178.389,1116.044,1165.166,1098.146,1155.86,1084.534L1155.86,1084.534z M841.448,806.308h54.075
				c17.917,0,26.847-8.937,26.847-27.204V671.68c0-13.61-8.93-26.862-26.847-26.862h-54.075c-13.575,0-26.845,13.251-26.845,26.862
				v107.424C814.604,797.371,827.873,806.308,841.448,806.308L841.448,806.308z M864.022,995.021c44.77,0,80.92,35.807,80.92,80.568
				c0,45.111-36.15,80.576-80.92,80.576c-45.113,0-81.299-35.465-81.299-80.576C782.724,1030.827,818.909,995.021,864.022,995.021
				L864.022,995.021z M1335.608,995.021c45.123,0,80.922,35.807,80.922,80.568c0,45.111-35.799,80.576-80.922,80.576
				c-44.762,0-80.559-35.465-80.559-80.576C1255.05,1030.827,1290.847,995.021,1335.608,995.021L1335.608,995.021z
				 M864.022,1205.586c44.77,0,80.92,36.15,80.92,80.92c0,44.771-36.15,80.919-80.92,80.919c-45.113,0-81.299-36.148-81.299-80.919
				C782.724,1241.736,818.909,1205.586,864.022,1205.586L864.022,1205.586z M1097.471,1205.586c49.425,0,85.576,36.15,85.576,80.92
				c0,44.771-36.151,80.919-85.576,80.919c-44.764,0-80.921-36.148-80.921-80.919
				C1016.55,1241.736,1052.707,1205.586,1097.471,1205.586L1097.471,1205.586z M1335.608,1205.586
				c45.123,0,80.922,36.15,80.922,80.92c0,44.771-35.799,80.919-80.922,80.919c-44.762,0-80.559-36.148-80.559-80.919
				C1255.05,1241.736,1290.847,1205.586,1335.608,1205.586L1335.608,1205.586z M1524.683,864.672v543.208
				c0,58.198-49.414,107.616-112.449,107.616H760.528c-58.348,0-107.765-49.418-107.765-107.616V864.672
				c0-63.013,49.417-112.431,107.765-112.431h26.844v26.862c0,31.86,27.231,54.075,54.076,54.075h54.075
				c31.188,0,53.714-22.215,53.714-54.075v-26.862h274.301v26.862c0,31.86,22.195,54.075,53.695,54.075h54.086
				c31.496,0,53.68-22.215,53.68-54.075v-26.862h27.234C1475.269,752.241,1524.683,801.659,1524.683,864.672L1524.683,864.672z
				 M1465.956,972.455c0-103.468-610.86-53.708-705.428-53.708c-31.501,0-54.076,22.198-54.076,53.708v435.426
				c0,26.854,22.575,53.893,54.076,53.893h651.705c31.16,0,53.723-27.038,53.723-53.893V972.455z M1277.233,806.308h54.086
				c17.91,0,26.838-8.937,26.838-27.204V671.68c0-13.61-8.928-26.862-26.838-26.862h-54.086c-13.229,0-26.842,13.251-26.842,26.862
				v107.424C1250.392,797.371,1264.005,806.308,1277.233,806.308L1277.233,806.308z M1165.166,1165.473c0,0-4.658,0-9.306-4.659
				c-22.195-22.564-40.466-49.416-62.65-71.975c-8.967,9.307-22.575,27.205-36.161,40.475l-4.342,4.656
				c-8.927,0-17.888-13.27-8.927-22.572c8.927-13.252,22.195-26.863,35.809-40.113c-13.613-18.252-31.539-31.504-44.77-40.457
				c-13.613-8.944-4.659-22.565,4.314-22.565h4.646c17.916,13.621,35.809,26.862,49.43,44.771
				c17.87-17.908,35.763-40.473,58.345-58.012h4.306c9.306,0,18.259,8.594,9.306,17.539c-18.271,18.268-36.193,36.167-54.086,58.725
				c22.585,22.213,40.475,49.416,63.039,71.614C1183.047,1151.853,1174.119,1165.473,1165.166,1165.473L1165.166,1165.473z"/>
		</g>
	</g>
</g>
</svg>
